<?xml version="1.0" standalone="no"?>
<!DOCTYPE svg PUBLIC "-//W3C//DTD SVG 20010904//EN"
 "http://www.w3.org/TR/2001/REC-SVG-20010904/DTD/svg10.dtd">
<svg version="1.0" xmlns="http://www.w3.org/2000/svg"
 width="943.000000pt" height="943.000000pt" viewBox="0 0 943.000000 943.000000"
 preserveAspectRatio="xMidYMid meet">
<metadata>
Created by potrace 1.14, written by Peter Selinger 2001-2017
</metadata>
<g transform="translate(0.000000,943.000000) scale(0.100000,-0.100000)"
fill="#000000" stroke="none">
<path d="M5613 9401 c-82 -21 -178 -105 -214 -186 -27 -62 -34 -149 -16 -208
l15 -48 -284 -285 c-156 -156 -286 -284 -289 -284 -12 0 -475 471 -475 484 0
7 7 30 15 50 19 44 21 136 6 193 -6 22 -26 63 -44 89 -137 204 -438 187 -551
-30 -28 -54 -31 -68 -31 -150 0 -76 4 -98 23 -134 58 -109 162 -178 280 -185
l61 -4 257 -257 c229 -230 255 -258 243 -273 -29 -36 -549 -553 -556 -553 -5
0 -206 198 -447 439 -335 336 -437 443 -429 453 20 25 35 88 34 146 0 123 -73
237 -186 292 -72 34 -199 35 -269 1 -61 -30 -128 -97 -158 -159 -19 -39 -23
-63 -23 -137 0 -78 4 -97 27 -141 32 -61 74 -105 131 -138 47 -27 149 -51 174
-41 12 4 140 -118 481 -459 l465 -464 -316 -316 c-173 -174 -318 -316 -321
-316 -4 0 -210 204 -459 454 l-452 454 0 103 c0 94 -3 109 -27 155 -115 219
-423 238 -556 34 -44 -67 -55 -112 -50 -199 7 -122 69 -215 176 -268 51 -25
68 -28 155 -28 l98 0 990 -989 989 -988 0 -2687 c0 -2537 1 -2688 18 -2721 42
-85 154 -106 222 -42 50 46 47 -109 46 2817 -1 2504 -2 2733 -17 2755 -9 14
-220 229 -468 478 -249 249 -451 458 -449 463 2 5 493 501 1091 1103 l1088
1093 78 0 c64 0 90 6 137 27 161 74 235 263 164 422 -27 63 -102 138 -163 164
-56 25 -160 35 -214 21z"/>
<path d="M6445 8967 c-95 -32 -159 -87 -202 -175 -21 -43 -27 -70 -27 -126 -1
-69 -2 -72 -36 -97 -19 -15 -281 -274 -581 -575 -427 -429 -548 -556 -551
-579 -3 -16 -5 -304 -5 -638 0 -334 -2 -610 -5 -612 -2 -2 -81 73 -176 168
l-172 172 8 50 c22 142 -54 282 -186 343 -80 37 -184 37 -262 0 -69 -33 -122
-84 -158 -151 -23 -45 -27 -63 -27 -142 0 -105 21 -157 87 -226 76 -78 206
-114 313 -86 29 7 40 -2 304 -267 l274 -274 0 -2811 c0 -2643 1 -2813 17
-2844 55 -103 196 -102 251 3 18 34 19 150 19 3627 l0 3592 524 526 523 526
39 -16 c24 -10 69 -17 115 -18 67 -1 84 3 142 31 198 98 242 345 92 510 -74
82 -218 122 -320 89z"/>
<path d="M7250 7960 c-68 -25 -116 -63 -157 -124 -54 -79 -71 -187 -43 -270
l12 -39 -271 -271 -271 -271 -51 51 -51 51 12 58 c41 196 -110 383 -310 386
-122 2 -229 -61 -288 -170 -32 -58 -36 -72 -36 -145 -1 -68 3 -90 26 -138 32
-69 88 -126 154 -158 40 -20 65 -24 139 -25 l90 0 473 -471 c259 -260 472
-476 472 -480 0 -5 -97 -106 -215 -224 l-215 -215 -154 154 -153 153 1 92 c0
80 -3 98 -26 146 -34 69 -87 124 -152 158 -44 23 -63 27 -141 27 -74 0 -98 -5
-137 -24 -66 -32 -125 -93 -156 -159 -23 -48 -27 -70 -26 -137 1 -49 7 -93 17
-115 68 -151 213 -226 379 -195 l37 7 151 -150 c82 -82 150 -153 150 -158 0
-5 -117 -126 -261 -269 -144 -143 -267 -274 -275 -292 -12 -27 -14 -329 -14
-1950 0 -1806 1 -1920 18 -1952 27 -54 65 -76 127 -76 62 0 100 22 127 76 17
31 18 88 18 749 l0 715 325 325 325 325 98 1 c107 1 148 13 216 67 184 146
146 445 -70 544 -86 39 -203 37 -283 -7 -45 -24 -113 -94 -139 -145 -24 -45
-27 -61 -27 -152 l1 -103 -223 -222 -223 -223 0 360 0 360 755 754 754 755 78
0 c95 1 167 31 230 95 68 69 88 120 88 226 0 79 -4 96 -28 143 -34 66 -86 115
-156 149 -77 38 -183 38 -263 1 -147 -68 -221 -228 -178 -382 l13 -48 -646
-646 -647 -647 0 400 0 400 811 810 811 810 86 0 c96 1 165 24 230 79 100 86
134 265 72 387 -78 152 -273 219 -425 144 -138 -67 -211 -218 -176 -365 l10
-45 -154 -155 -155 -155 -315 315 c-173 173 -315 319 -315 325 0 5 124 133
274 284 l275 273 53 -5 c193 -17 358 144 345 338 -7 121 -69 215 -178 270 -73
38 -172 44 -249 15z"/>
<path d="M1482 7152 c-72 -26 -141 -87 -177 -157 -27 -53 -30 -68 -30 -149 0
-80 4 -97 27 -141 34 -62 64 -96 114 -128 69 -44 152 -60 233 -45 44 8 47 7
74 -24 16 -18 54 -60 86 -93 31 -33 137 -148 236 -255 99 -107 187 -202 195
-210 8 -9 44 -47 79 -85 36 -39 92 -99 126 -135 33 -36 110 -119 170 -184 61
-66 121 -132 135 -146 49 -52 147 -158 250 -270 123 -133 134 -145 180 -194
l35 -37 1 -355 1 -356 -729 729 -728 728 7 35 c31 144 -39 288 -172 358 -43
23 -62 27 -140 27 -76 0 -98 -4 -140 -25 -63 -30 -124 -92 -155 -155 -33 -68
-35 -198 -4 -266 61 -133 199 -207 346 -187 l59 8 827 -827 827 -827 1 -423
c1 -233 -2 -423 -6 -423 -3 0 -198 193 -433 429 l-426 428 11 39 c5 21 8 65 4
96 -11 114 -78 208 -181 259 -53 26 -76 31 -138 32 -65 1 -83 -3 -140 -31
-118 -58 -182 -161 -181 -292 1 -128 68 -234 184 -289 48 -23 67 -26 152 -25
l96 1 529 -529 528 -528 1 -828 c1 -935 -4 -879 78 -922 73 -39 152 -15 191
59 16 31 17 167 17 2091 0 1605 -3 2063 -13 2082 -14 27 -46 64 -195 223 -61
66 -126 136 -144 155 -18 19 -55 60 -84 90 -28 30 -107 116 -176 190 -69 74
-127 137 -130 140 -3 3 -118 127 -255 275 -137 149 -254 275 -260 281 -5 6
-60 64 -121 130 -61 65 -135 145 -164 177 l-54 58 0 107 c-1 120 -14 157 -82
232 -78 86 -229 122 -342 82z"/>
</g>
</svg>
